ISO-10303-21;
HEADER;
FILE_DESCRIPTION(('FreeCAD Model'),'2;1');
FILE_NAME('Open CASCADE Shape Model','2024-12-20T21:17:33',(''),(''),
  'Open CASCADE STEP processor 7.7','FreeCAD','Unknown');
FILE_SCHEMA(('AUTOMOTIVE_DESIGN { 1 0 10303 214 1 1 1 1 }'));
ENDSEC;
DATA;
#1 = APPLICATION_PROTOCOL_DEFINITION('international standard',
  'automotive_design',2000,#2);
#2 = APPLICATION_CONTEXT(
  'core data for automotive mechanical design processes');
#3 = SHAPE_DEFINITION_REPRESENTATION(#4,#10);
#4 = PRODUCT_DEFINITION_SHAPE('','',#5);
#5 = PRODUCT_DEFINITION('design','',#6,#9);
#6 = PRODUCT_DEFINITION_FORMATION('','',#7);
#7 = PRODUCT('Body','Body','',(#8));
#8 = PRODUCT_CONTEXT('',#2,'mechanical');
#9 = PRODUCT_DEFINITION_CONTEXT('part definition',#2,'design');
#10 = ADVANCED_BREP_SHAPE_REPRESENTATION('',(#11,#15),#207);
#11 = AXIS2_PLACEMENT_3D('',#12,#13,#14);
#12 = CARTESIAN_POINT('',(0.,0.,0.));
#13 = DIRECTION('',(0.,0.,1.));
#14 = DIRECTION('',(1.,0.,-0.));
#15 = MANIFOLD_SOLID_BREP('',#16);
#16 = CLOSED_SHELL('',(#17,#110,#145,#200));
#17 = ADVANCED_FACE('',(#18),#33,.T.);
#18 = FACE_BOUND('',#19,.T.);
#19 = EDGE_LOOP('',(#20,#51,#82,#83));
#20 = ORIENTED_EDGE('',*,*,#21,.T.);
#21 = EDGE_CURVE('',#22,#24,#26,.T.);
#22 = VERTEX_POINT('',#23);
#23 = CARTESIAN_POINT('',(6.E-15,50.8,-1.3E-14));
#24 = VERTEX_POINT('',#25);
#25 = CARTESIAN_POINT('',(40.44650788387,50.8,16.753492116129));
#26 = SEAM_CURVE('',#27,(#32,#44),.PCURVE_S1.);
#27 = CIRCLE('',#28,57.2);
#28 = AXIS2_PLACEMENT_3D('',#29,#30,#31);
#29 = CARTESIAN_POINT('',(-1.42E-15,50.8,57.2));
#30 = DIRECTION('',(-2.2E-16,-1.,2.2E-16));
#31 = DIRECTION('',(1.,-2.2E-16,1.2E-16));
#32 = PCURVE('',#33,#38);
#33 = TOROIDAL_SURFACE('',#34,57.2,50.8);
#34 = AXIS2_PLACEMENT_3D('',#35,#36,#37);
#35 = CARTESIAN_POINT('',(-1.27E-14,1.27E-14,57.2));
#36 = DIRECTION('',(-2.2E-16,-1.,2.2E-16));
#37 = DIRECTION('',(1.,-2.2E-16,1.2E-16));
#38 = DEFINITIONAL_REPRESENTATION('',(#39),#43);
#39 = LINE('',#40,#41);
#40 = CARTESIAN_POINT('',(0.,4.712388980385));
#41 = VECTOR('',#42,1.);
#42 = DIRECTION('',(1.,0.));
#43 = ( GEOMETRIC_REPRESENTATION_CONTEXT(2) 
PARAMETRIC_REPRESENTATION_CONTEXT() REPRESENTATION_CONTEXT('2D SPACE',''
  ) );
#44 = PCURVE('',#33,#45);
#45 = DEFINITIONAL_REPRESENTATION('',(#46),#50);
#46 = LINE('',#47,#48);
#47 = CARTESIAN_POINT('',(0.,10.995574287564));
#48 = VECTOR('',#49,1.);
#49 = DIRECTION('',(1.,0.));
#50 = ( GEOMETRIC_REPRESENTATION_CONTEXT(2) 
PARAMETRIC_REPRESENTATION_CONTEXT() REPRESENTATION_CONTEXT('2D SPACE',''
  ) );
#51 = ORIENTED_EDGE('',*,*,#52,.T.);
#52 = EDGE_CURVE('',#24,#24,#53,.T.);
#53 = SURFACE_CURVE('',#54,(#59,#66),.PCURVE_S1.);
#54 = CIRCLE('',#55,50.8);
#55 = AXIS2_PLACEMENT_3D('',#56,#57,#58);
#56 = CARTESIAN_POINT('',(40.44650788387,-5.26E-15,16.753492116129));
#57 = DIRECTION('',(-0.707106781187,0.,-0.707106781187));
#58 = DIRECTION('',(0.707106781187,-3.1E-16,-0.707106781187));
#59 = PCURVE('',#33,#60);
#60 = DEFINITIONAL_REPRESENTATION('',(#61),#65);
#61 = LINE('',#62,#63);
#62 = CARTESIAN_POINT('',(5.497787143782,0.));
#63 = VECTOR('',#64,1.);
#64 = DIRECTION('',(0.,1.));
#65 = ( GEOMETRIC_REPRESENTATION_CONTEXT(2) 
PARAMETRIC_REPRESENTATION_CONTEXT() REPRESENTATION_CONTEXT('2D SPACE',''
  ) );
#66 = PCURVE('',#67,#72);
#67 = PLANE('',#68);
#68 = AXIS2_PLACEMENT_3D('',#69,#70,#71);
#69 = CARTESIAN_POINT('',(40.44650788387,-6.89E-15,16.753492116129));
#70 = DIRECTION('',(0.707106781187,2.7E-16,0.707106781187));
#71 = DIRECTION('',(-0.707106781187,0.,0.707106781187));
#72 = DEFINITIONAL_REPRESENTATION('',(#73),#81);
#73 = ( BOUNDED_CURVE() B_SPLINE_CURVE(2,(#74,#75,#76,#77,#78,#79,#80),
.UNSPECIFIED.,.T.,.F.) B_SPLINE_CURVE_WITH_KNOTS((1,2,2,2,2,1),(
    -2.094395102393,0.,2.094395102393,4.188790204786,6.28318530718,
8.377580409573),.UNSPECIFIED.) CURVE() GEOMETRIC_REPRESENTATION_ITEM() 
RATIONAL_B_SPLINE_CURVE((1.,0.5,1.,0.5,1.,0.5,1.)) REPRESENTATION_ITEM(
  '') );
#74 = CARTESIAN_POINT('',(-50.8,1.4118E-14));
#75 = CARTESIAN_POINT('',(-50.8,87.988181024499));
#76 = CARTESIAN_POINT('',(25.4,43.994090512249));
#77 = CARTESIAN_POINT('',(101.6,-2.068358852066E-14));
#78 = CARTESIAN_POINT('',(25.4,-43.99409051224));
#79 = CARTESIAN_POINT('',(-50.8,-87.98818102449));
#80 = CARTESIAN_POINT('',(-50.8,1.4118E-14));
#81 = ( GEOMETRIC_REPRESENTATION_CONTEXT(2) 
PARAMETRIC_REPRESENTATION_CONTEXT() REPRESENTATION_CONTEXT('2D SPACE',''
  ) );
#82 = ORIENTED_EDGE('',*,*,#21,.F.);
#83 = ORIENTED_EDGE('',*,*,#84,.T.);
#84 = EDGE_CURVE('',#22,#22,#85,.T.);
#85 = SURFACE_CURVE('',#86,(#91,#98),.PCURVE_S1.);
#86 = CIRCLE('',#87,50.8);
#87 = AXIS2_PLACEMENT_3D('',#88,#89,#90);
#88 = CARTESIAN_POINT('',(0.,0.,0.));
#89 = DIRECTION('',(1.,0.,2.2E-16));
#90 = DIRECTION('',(4.84E-32,1.,-2.2E-16));
#91 = PCURVE('',#33,#92);
#92 = DEFINITIONAL_REPRESENTATION('',(#93),#97);
#93 = LINE('',#94,#95);
#94 = CARTESIAN_POINT('',(4.712388980385,10.995574287564));
#95 = VECTOR('',#96,1.);
#96 = DIRECTION('',(-0.,-1.));
#97 = ( GEOMETRIC_REPRESENTATION_CONTEXT(2) 
PARAMETRIC_REPRESENTATION_CONTEXT() REPRESENTATION_CONTEXT('2D SPACE',''
  ) );
#98 = PCURVE('',#99,#104);
#99 = PLANE('',#100);
#100 = AXIS2_PLACEMENT_3D('',#101,#102,#103);
#101 = CARTESIAN_POINT('',(0.,0.,8.11E-15));
#102 = DIRECTION('',(1.,0.,0.));
#103 = DIRECTION('',(0.,1.,0.));
#104 = DEFINITIONAL_REPRESENTATION('',(#105),#109);
#105 = CIRCLE('',#106,50.8);
#106 = AXIS2_PLACEMENT_2D('',#107,#108);
#107 = CARTESIAN_POINT('',(0.,-8.11E-15));
#108 = DIRECTION('',(1.,-2.2E-16));
#109 = ( GEOMETRIC_REPRESENTATION_CONTEXT(2) 
PARAMETRIC_REPRESENTATION_CONTEXT() REPRESENTATION_CONTEXT('2D SPACE',''
  ) );
#110 = ADVANCED_FACE('',(#111,#114),#99,.F.);
#111 = FACE_BOUND('',#112,.F.);
#112 = EDGE_LOOP('',(#113));
#113 = ORIENTED_EDGE('',*,*,#84,.T.);
#114 = FACE_BOUND('',#115,.F.);
#115 = EDGE_LOOP('',(#116));
#116 = ORIENTED_EDGE('',*,*,#117,.F.);
#117 = EDGE_CURVE('',#118,#118,#120,.T.);
#118 = VERTEX_POINT('',#119);
#119 = CARTESIAN_POINT('',(4.E-15,45.06,-5.E-15));
#120 = SURFACE_CURVE('',#121,(#126,#133),.PCURVE_S1.);
#121 = CIRCLE('',#122,45.06);
#122 = AXIS2_PLACEMENT_3D('',#123,#124,#125);
#123 = CARTESIAN_POINT('',(-1.61E-14,0.,0.));
#124 = DIRECTION('',(1.,-2.2E-16,-6.E-17));
#125 = DIRECTION('',(2.2E-16,1.,2.2E-16));
#126 = PCURVE('',#99,#127);
#127 = DEFINITIONAL_REPRESENTATION('',(#128),#132);
#128 = CIRCLE('',#129,45.06);
#129 = AXIS2_PLACEMENT_2D('',#130,#131);
#130 = CARTESIAN_POINT('',(0.,-8.11E-15));
#131 = DIRECTION('',(1.,2.2E-16));
#132 = ( GEOMETRIC_REPRESENTATION_CONTEXT(2) 
PARAMETRIC_REPRESENTATION_CONTEXT() REPRESENTATION_CONTEXT('2D SPACE',''
  ) );
#133 = PCURVE('',#134,#139);
#134 = TOROIDAL_SURFACE('',#135,57.2,45.06);
#135 = AXIS2_PLACEMENT_3D('',#136,#137,#138);
#136 = CARTESIAN_POINT('',(-1.27E-14,1.27E-14,57.2));
#137 = DIRECTION('',(-2.2E-16,-1.,2.2E-16));
#138 = DIRECTION('',(1.,-2.2E-16,1.2E-16));
#139 = DEFINITIONAL_REPRESENTATION('',(#140),#144);
#140 = LINE('',#141,#142);
#141 = CARTESIAN_POINT('',(4.712388980385,10.995574287564));
#142 = VECTOR('',#143,1.);
#143 = DIRECTION('',(-0.,-1.));
#144 = ( GEOMETRIC_REPRESENTATION_CONTEXT(2) 
PARAMETRIC_REPRESENTATION_CONTEXT() REPRESENTATION_CONTEXT('2D SPACE',''
  ) );
#145 = ADVANCED_FACE('',(#146),#134,.F.);
#146 = FACE_BOUND('',#147,.F.);
#147 = EDGE_LOOP('',(#148,#172,#173,#174));
#148 = ORIENTED_EDGE('',*,*,#149,.F.);
#149 = EDGE_CURVE('',#118,#150,#152,.T.);
#150 = VERTEX_POINT('',#151);
#151 = CARTESIAN_POINT('',(40.44650788387,45.06,16.753492116129));
#152 = SEAM_CURVE('',#153,(#158,#165),.PCURVE_S1.);
#153 = CIRCLE('',#154,57.2);
#154 = AXIS2_PLACEMENT_3D('',#155,#156,#157);
#155 = CARTESIAN_POINT('',(-2.7E-15,45.06,57.2));
#156 = DIRECTION('',(-2.2E-16,-1.,2.2E-16));
#157 = DIRECTION('',(1.,-2.2E-16,1.2E-16));
#158 = PCURVE('',#134,#159);
#159 = DEFINITIONAL_REPRESENTATION('',(#160),#164);
#160 = LINE('',#161,#162);
#161 = CARTESIAN_POINT('',(0.,10.995574287564));
#162 = VECTOR('',#163,1.);
#163 = DIRECTION('',(1.,0.));
#164 = ( GEOMETRIC_REPRESENTATION_CONTEXT(2) 
PARAMETRIC_REPRESENTATION_CONTEXT() REPRESENTATION_CONTEXT('2D SPACE',''
  ) );
#165 = PCURVE('',#134,#166);
#166 = DEFINITIONAL_REPRESENTATION('',(#167),#171);
#167 = LINE('',#168,#169);
#168 = CARTESIAN_POINT('',(0.,4.712388980385));
#169 = VECTOR('',#170,1.);
#170 = DIRECTION('',(1.,0.));
#171 = ( GEOMETRIC_REPRESENTATION_CONTEXT(2) 
PARAMETRIC_REPRESENTATION_CONTEXT() REPRESENTATION_CONTEXT('2D SPACE',''
  ) );
#172 = ORIENTED_EDGE('',*,*,#117,.T.);
#173 = ORIENTED_EDGE('',*,*,#149,.T.);
#174 = ORIENTED_EDGE('',*,*,#175,.T.);
#175 = EDGE_CURVE('',#150,#150,#176,.T.);
#176 = SURFACE_CURVE('',#177,(#182,#189),.PCURVE_S1.);
#177 = CIRCLE('',#178,45.06);
#178 = AXIS2_PLACEMENT_3D('',#179,#180,#181);
#179 = CARTESIAN_POINT('',(40.44650788387,-5.26E-15,16.753492116129));
#180 = DIRECTION('',(-0.707106781187,0.,-0.707106781187));
#181 = DIRECTION('',(0.707106781187,-3.1E-16,-0.707106781187));
#182 = PCURVE('',#134,#183);
#183 = DEFINITIONAL_REPRESENTATION('',(#184),#188);
#184 = LINE('',#185,#186);
#185 = CARTESIAN_POINT('',(5.497787143782,0.));
#186 = VECTOR('',#187,1.);
#187 = DIRECTION('',(0.,1.));
#188 = ( GEOMETRIC_REPRESENTATION_CONTEXT(2) 
PARAMETRIC_REPRESENTATION_CONTEXT() REPRESENTATION_CONTEXT('2D SPACE',''
  ) );
#189 = PCURVE('',#67,#190);
#190 = DEFINITIONAL_REPRESENTATION('',(#191),#199);
#191 = ( BOUNDED_CURVE() B_SPLINE_CURVE(2,(#192,#193,#194,#195,#196,#197
,#198),.UNSPECIFIED.,.T.,.F.) B_SPLINE_CURVE_WITH_KNOTS((1,2,2,2,2,1),(
    -2.094395102393,0.,2.094395102393,4.188790204786,6.28318530718,
8.377580409573),.UNSPECIFIED.) CURVE() GEOMETRIC_REPRESENTATION_ITEM() 
RATIONAL_B_SPLINE_CURVE((1.,0.5,1.,0.5,1.,0.5,1.)) REPRESENTATION_ITEM(
  '') );
#192 = CARTESIAN_POINT('',(-45.06,1.23386E-14));
#193 = CARTESIAN_POINT('',(-45.06,78.046209389054));
#194 = CARTESIAN_POINT('',(22.53,39.023104694527));
#195 = CARTESIAN_POINT('',(90.12,-1.853068304608E-14));
#196 = CARTESIAN_POINT('',(22.53,-39.02310469452));
#197 = CARTESIAN_POINT('',(-45.06,-78.04620938905));
#198 = CARTESIAN_POINT('',(-45.06,1.23386E-14));
#199 = ( GEOMETRIC_REPRESENTATION_CONTEXT(2) 
PARAMETRIC_REPRESENTATION_CONTEXT() REPRESENTATION_CONTEXT('2D SPACE',''
  ) );
#200 = ADVANCED_FACE('',(#201,#204),#67,.T.);
#201 = FACE_BOUND('',#202,.T.);
#202 = EDGE_LOOP('',(#203));
#203 = ORIENTED_EDGE('',*,*,#52,.F.);
#204 = FACE_BOUND('',#205,.T.);
#205 = EDGE_LOOP('',(#206));
#206 = ORIENTED_EDGE('',*,*,#175,.T.);
#207 = ( GEOMETRIC_REPRESENTATION_CONTEXT(3) 
GLOBAL_UNCERTAINTY_ASSIGNED_CONTEXT((#211)) GLOBAL_UNIT_ASSIGNED_CONTEXT
((#208,#209,#210)) REPRESENTATION_CONTEXT('Context #1',
  '3D Context with UNIT and UNCERTAINTY') );
#208 = ( LENGTH_UNIT() NAMED_UNIT(*) SI_UNIT(.MILLI.,.METRE.) );
#209 = ( NAMED_UNIT(*) PLANE_ANGLE_UNIT() SI_UNIT($,.RADIAN.) );
#210 = ( NAMED_UNIT(*) SI_UNIT($,.STERADIAN.) SOLID_ANGLE_UNIT() );
#211 = UNCERTAINTY_MEASURE_WITH_UNIT(LENGTH_MEASURE(1.E-07),#208,
  'distance_accuracy_value','confusion accuracy');
#212 = PRODUCT_RELATED_PRODUCT_CATEGORY('part',$,(#7));
#213 = MECHANICAL_DESIGN_GEOMETRIC_PRESENTATION_REPRESENTATION('',(#214)
  ,#207);
#214 = STYLED_ITEM('color',(#215),#15);
#215 = PRESENTATION_STYLE_ASSIGNMENT((#216,#222));
#216 = SURFACE_STYLE_USAGE(.BOTH.,#217);
#217 = SURFACE_SIDE_STYLE('',(#218));
#218 = SURFACE_STYLE_FILL_AREA(#219);
#219 = FILL_AREA_STYLE('',(#220));
#220 = FILL_AREA_STYLE_COLOUR('',#221);
#221 = COLOUR_RGB('',0.800000010877,0.800000010877,0.901960800373);
#222 = CURVE_STYLE('',#223,POSITIVE_LENGTH_MEASURE(0.1),#224);
#223 = DRAUGHTING_PRE_DEFINED_CURVE_FONT('continuous');
#224 = COLOUR_RGB('',9.803921802644E-02,9.803921802644E-02,
  9.803921802644E-02);
ENDSEC;
END-ISO-10303-21;
