                                                                        S0000001
,,31HOpen CASCADE IGES processor 7.7,13HFilename.iges,                  G0000001
16HOpen CASCADE 7.7,31HOpen CASCADE IGES processor 7.7,32,308,15,308,15,G0000002
,1.,2,2HMM,1,0.01,15H20241220.174939,1E-07,1531.333807,,,11,0,          G0000003
15H20241220.174939,;                                                    G0000004
     402       1       0       0       0       0       0       000000000D0000001
     402       0       0       1       1                               0D0000002
     144       2       0       0       0       0       0       000020000D0000003
     144       0       0       1       0                               0D0000004
     120       3       0       0       0       0       7       000010000D0000005
     120       0       0       1       0                               0D0000006
     124       4       0       0       0       0       0       000000000D0000007
     124       0       0       2       0                               0D0000008
     110       6       0       0       0       0       0       000010000D0000009
     110       0       0       1       0                               0D0000010
     100       7       0       0       0       0      13       000010000D0000011
     100       0       0       1       0                               0D0000012
     124       8       0       0       0       0       0       000000000D0000013
     124       0       0       1       0                               0D0000014
     142       9       0       0       0       0       0       000010500D0000015
     142       0       0       1       0                               0D0000016
     102      10       0       0       0       0       0       000010000D0000017
     102       0       0       1       0                               0D0000018
     110      11       0       0       0       0       0       000010000D0000019
     110       0       0       1       0                               0D0000020
     110      12       0       0       0       0       0       000010000D0000021
     110       0       0       2       0                               0D0000022
     110      14       0       0       0       0       0       000010000D0000023
     110       0       0       1       0                               0D0000024
     110      15       0       0       0       0       0       000010000D0000025
     110       0       0       1       0                               0D0000026
     102      16       0       0       0       0       0       000010000D0000027
     102       0       0       1       0                               0D0000028
     100      17       0       0       0       0      31       000010000D0000029
     100       0       0       2       0                               0D0000030
     124      19       0       0       0       0       0       000000000D0000031
     124       0       0       2       0                               0D0000032
     100      21       0       0       0       0      35       000010000D0000033
     100       0       0       1       0                               0D0000034
     124      22       0       0       0       0       0       000000000D0000035
     124       0       0       3       0                               0D0000036
     100      25       0       0       0       0      39       000010000D0000037
     100       0       0       1       0                               0D0000038
     124      26       0       0       0       0       0       000000000D0000039
     124       0       0       2       0                               0D0000040
     100      28       0       0       0       0      43       000010000D0000041
     100       0       0       1       0                               0D0000042
     124      29       0       0       0       0       0       000000000D0000043
     124       0       0       2       0                               0D0000044
     144      31       0       0       0       0       0       000020000D0000045
     144       0       0       1       0                               0D0000046
     108      32       0       0       0       0       0       000010000D0000047
     108       0       0       1       0                               0D0000048
     142      33       0       0       0       0       0       000010500D0000049
     142       0       0       1       0                               0D0000050
     100      34       0       0       0       0      53       000010000D0000051
     100       0       0       1       0                               0D0000052
     124      35       0       0       0       0       0       000000000D0000053
     124       0       0       2       0                               0D0000054
     142      37       0       0       0       0       0       000010500D0000055
     142       0       0       1       0                               0D0000056
     100      38       0       0       0       0      59       000010000D0000057
     100       0       0       1       0                               0D0000058
     124      39       0       0       0       0       0       000000000D0000059
     124       0       0       2       0                               0D0000060
     144      41       0       0       0       0       0       000020000D0000061
     144       0       0       1       0                               0D0000062
     120      42       0       0       0       0      65       000010000D0000063
     120       0       0       1       0                               0D0000064
     124      43       0       0       0       0       0       000000000D0000065
     124       0       0       2       1                               0D0000066
     110      45       0       0       0       0       0       000010000D0000067
     110       0       0       1       0                               0D0000068
     100      46       0       0       0       0      71       000010000D0000069
     100       0       0       1       0                               0D0000070
     124      47       0       0       0       0       0       000000000D0000071
     124       0       0       1       0                               0D0000072
     142      48       0       0       0       0       0       000010500D0000073
     142       0       0       1       0                               0D0000074
     102      49       0       0       0       0       0       000010000D0000075
     102       0       0       1       0                               0D0000076
     110      50       0       0       0       0       0       000010000D0000077
     110       0       0       1       0                               0D0000078
     110      51       0       0       0       0       0       000010000D0000079
     110       0       0       1       0                               0D0000080
     110      52       0       0       0       0       0       000010000D0000081
     110       0       0       1       0                               0D0000082
     110      53       0       0       0       0       0       000010000D0000083
     110       0       0       1       0                               0D0000084
     102      54       0       0       0       0       0       000010000D0000085
     102       0       0       1       0                               0D0000086
     100      55       0       0       0       0      89       000010000D0000087
     100       0       0       1       0                               0D0000088
     124      56       0       0       0       0       0       000000000D0000089
     124       0       0       2       0                               0D0000090
     100      58       0       0       0       0      93       000010000D0000091
     100       0       0       1       0                               0D0000092
     124      59       0       0       0       0       0       000000000D0000093
     124       0       0       2       0                               0D0000094
     100      61       0       0       0       0      97       000010000D0000095
     100       0       0       1       0                               0D0000096
     124      62       0       0       0       0       0       000000000D0000097
     124       0       0       2       0                               0D0000098
     100      64       0       0       0       0     101       000010000D0000099
     100       0       0       2       0                               0D0000100
     124      66       0       0       0       0       0       000000000D0000101
     124       0       0       2       0                               0D0000102
     144      68       0       0       0       0       0       000020000D0000103
     144       0       0       1       0                               0D0000104
     108      69       0       0       0       0       0       000010000D0000105
     108       0       0       2       0                               0D0000106
     142      71       0       0       0       0       0       000010500D0000107
     142       0       0       1       0                               0D0000108
     100      72       0       0       0       0     111       000010000D0000109
     100       0       0       1       0                               0D0000110
     124      73       0       0       0       0       0       000000000D0000111
     124       0       0       2       0                               0D0000112
     142      75       0       0       0       0       0       000010500D0000113
     142       0       0       1       0                               0D0000114
     100      76       0       0       0       0     117       000010000D0000115
     100       0       0       1       0                               0D0000116
     124      77       0       0       0       0       0       000000000D0000117
     124       0       0       3       0                               0D0000118
402,4,3,45,61,103;                                               0000001P0000001
144,5,1,0,15;                                                    0000003P0000002
120,9,11,3.26794896E-07,1.570796327;                             0000005P0000003
124,1.,-2.2E-16,-2.2E-16,-2.256E-13,-2.2E-16,2.2E-16,-1.,        0000007P0000004
2.256E-13,2.2E-16,1.,2.2E-16,1.016E+03;                          0000007P0000005
110,0.,0.,1.,0.,0.,0.;                                           0000009P0000006
100,0.,0.,0.,-1.136868377E-13,-508.,-1.136868377E-13,-508.;      0000011P0000007
124,1.,0.,0.,1.016E+03,0.,0.,-1.,0.,0.,1.,-0.,0.;                0000013P0000008
142,0,5,17,27,3;                                                 0000015P0000009
102,4,19,21,23,25;                                               0000017P0000010
110,4.71238898,1.570796327,0.,4.71238898,3.267948969E-07,0.;     0000019P0000011
110,4.71238898,3.267948991E-07,0.,10.995574288,3.267949005E-07,  0000021P0000012
0.;                                                              0000021P0000013
110,10.995574288,3.267948987E-07,0.,10.995574288,1.570796327,0.; 0000023P0000014
110,10.995574288,1.570796327,0.,4.71238898,1.570796327,0.;       0000025P0000015
102,4,29,33,37,41;                                               0000027P0000016
100,0.,0.,0.,-1.866361722E-13,-1.016E+03,1.016E+03,              0000029P0000017
-3.320236146E-04;                                                0000029P0000018
124,1.,-2.2E-16,-2.2E-16,-1.128E-13,-2.2E-16,2.2E-16,-1.,508.,   0000031P0000019
2.2E-16,1.,2.2E-16,1.016E+03;                                    0000031P0000020
100,0.,0.,0.,508.,0.,508.,0.;                                    0000033P0000021
124,2.2E-16,1.,-3.267948957E-07,1.016E+03,1.,-2.200001438E-16,   0000035P0000022
-4.4E-16,0.,-4.400000719E-16,-3.267948957E-07,-1.,               0000035P0000023
1.015999668E+03;                                                 0000035P0000024
100,0.,0.,0.,1.016E+03,3.320236144E-04,6.22120574E-14,1.016E+03; 0000037P0000025
124,1.,2.2E-16,2.2E-16,-1.128E-13,-2.2E-16,-2.2E-16,1.,508.,     0000039P0000026
2.2E-16,-1.,-2.2E-16,1.016E+03;                                  0000039P0000027
100,0.,0.,0.,508.,0.,508.,0.;                                    0000041P0000028
124,4.84E-32,-2.2E-16,1.,0.,1.,2.2E-16,0.,0.,-2.2E-16,1.,        0000043P0000029
2.2E-16,0.;                                                      0000043P0000030
144,47,1,1,49,55;                                                0000045P0000031
108,-1.,-0.,-0.,0.,0,0.,-1.103E-14,7.072E-14,0.;                 0000047P0000032
142,0,47,0,51,2;                                                 0000049P0000033
100,0.,0.,0.,508.,0.,508.,0.;                                    0000051P0000034
124,4.84E-32,2.2E-16,-1.,0.,1.,-2.2E-16,0.,0.,-2.2E-16,-1.,      0000053P0000035
-2.2E-16,0.;                                                     0000053P0000036
142,0,47,0,57,2;                                                 0000055P0000037
100,0.,0.,0.,488.95,-7.3944E-30,488.95,-7.3944E-30;              0000057P0000038
124,2.2E-16,-4.E-17,1.,-1.8486E-13,1.,-2.2E-16,-2.2E-16,0.,      0000059P0000039
2.2E-16,1.,4.E-17,0.;                                            0000059P0000040
144,63,1,0,73;                                                   0000061P0000041
120,67,69,4.71238898,6.28318498;                                 0000063P0000042
124,1.,2.2E-16,-2.2E-16,-2.256E-13,-2.2E-16,-2.2E-16,-1.,        0000065P0000043
2.256E-13,2.2E-16,-1.,2.2E-16,1.016E+03;                         0000065P0000044
110,0.,0.,1.,0.,0.,0.;                                           0000067P0000045
100,0.,0.,0.,-1.136868377E-13,-488.95,-1.136868377E-13,-488.95;  0000069P0000046
124,1.,0.,0.,1.016E+03,0.,0.,-1.,0.,0.,1.,-0.,0.;                0000071P0000047
142,0,63,75,85,3;                                                0000073P0000048
102,4,77,79,81,83;                                               0000075P0000049
110,10.995574288,6.28318498,0.,4.71238898,6.28318498,0.;         0000077P0000050
110,4.71238898,6.28318498,0.,4.71238898,4.71238898,0.;           0000079P0000051
110,4.71238898,4.71238898,0.,10.995574288,4.71238898,0.;         0000081P0000052
110,10.995574288,4.71238898,0.,10.995574288,6.28318498,0.;       0000083P0000053
102,4,87,91,95,99;                                               0000085P0000054
100,0.,0.,0.,488.95,0.,488.95,0.;                                0000087P0000055
124,-2.1E-16,-1.,3.26794896E-07,1.016E+03,1.,-2.099999281E-16,   0000089P0000056
2.2E-16,0.,-2.199999314E-16,3.26794896E-07,1.,1.015999668E+03;   0000089P0000057
100,0.,0.,0.,1.016E+03,3.320236144E-04,6.22120574E-14,1.016E+03; 0000091P0000058
124,1.,2.2E-16,2.2E-16,-1.1703E-13,-2.2E-16,-2.2E-16,1.,488.95,  0000093P0000059
2.2E-16,-1.,-2.2E-16,1.016E+03;                                  0000093P0000060
100,0.,0.,0.,488.95,7.3944E-30,488.95,7.3944E-30;                0000095P0000061
124,2.2E-16,4.E-17,-1.,-1.8486E-13,1.,2.2E-16,2.2E-16,0.,        0000097P0000062
2.2E-16,-1.,-4.E-17,0.;                                          0000097P0000063
100,0.,0.,0.,-1.866361722E-13,-1.016E+03,1.016E+03,              0000099P0000064
-3.320236146E-04;                                                0000099P0000065
124,1.,-2.2E-16,-2.2E-16,-1.1703E-13,-2.2E-16,2.2E-16,-1.,       0000101P0000066
488.95,2.2E-16,1.,2.2E-16,1.016E+03;                             0000101P0000067
144,105,1,1,107,113;                                             0000103P0000068
108,3.267948956E-07,4.5E-16,1.,1.016E+03,0,1.016E+03,-3.308E-14, 0000105P0000069
1.015999668E+03,0.;                                              0000105P0000070
142,0,105,0,109,2;                                               0000107P0000071
100,0.,0.,0.,508.,0.,508.,0.;                                    0000109P0000072
124,2.2E-16,-1.,3.267948957E-07,1.016E+03,1.,2.200001438E-16,    0000111P0000073
4.4E-16,0.,-4.400000719E-16,3.267948957E-07,1.,1.015999668E+03;  0000111P0000074
142,0,105,0,115,2;                                               0000113P0000075
100,0.,0.,0.,488.95,0.,488.95,0.;                                0000115P0000076
124,-2.1E-16,1.,-3.26794896E-07,1.016E+03,1.,2.099999281E-16,    0000117P0000077
-2.2E-16,0.,-2.199999314E-16,-3.26794896E-07,-1.,                0000117P0000078
1.015999668E+03;                                                 0000117P0000079
S      1G      4D    118P     79                                        T0000001
