ISO-10303-21;
HEADER;
FILE_DESCRIPTION(('FreeCAD Model'),'2;1');
FILE_NAME('Open CASCADE Shape Model','2024-12-20T17:54:47',(''),(''),
  'Open CASCADE STEP processor 7.7','FreeCAD','Unknown');
FILE_SCHEMA(('AUTOMOTIVE_DESIGN { 1 0 10303 214 1 1 1 1 }'));
ENDSEC;
DATA;
#1 = APPLICATION_PROTOCOL_DEFINITION('international standard',
  'automotive_design',2000,#2);
#2 = APPLICATION_CONTEXT(
  'core data for automotive mechanical design processes');
#3 = SHAPE_DEFINITION_REPRESENTATION(#4,#10);
#4 = PRODUCT_DEFINITION_SHAPE('','',#5);
#5 = PRODUCT_DEFINITION('design','',#6,#9);
#6 = PRODUCT_DEFINITION_FORMATION('','',#7);
#7 = PRODUCT('Body','Body','',(#8));
#8 = PRODUCT_CONTEXT('',#2,'mechanical');
#9 = PRODUCT_DEFINITION_CONTEXT('part definition',#2,'design');
#10 = ADVANCED_BREP_SHAPE_REPRESENTATION('',(#11,#15),#109);
#11 = AXIS2_PLACEMENT_3D('',#12,#13,#14);
#12 = CARTESIAN_POINT('',(0.,0.,0.));
#13 = DIRECTION('',(0.,0.,1.));
#14 = DIRECTION('',(1.,0.,-0.));
#15 = MANIFOLD_SOLID_BREP('',#16);
#16 = CLOSED_SHELL('',(#17,#51,#71,#97));
#17 = ADVANCED_FACE('',(#18),#46,.T.);
#18 = FACE_BOUND('',#19,.T.);
#19 = EDGE_LOOP('',(#20,#31,#38,#39));
#20 = ORIENTED_EDGE('',*,*,#21,.T.);
#21 = EDGE_CURVE('',#22,#24,#26,.T.);
#22 = VERTEX_POINT('',#23);
#23 = CARTESIAN_POINT('',(1.E-15,10.65,-1.E-15));
#24 = VERTEX_POINT('',#25);
#25 = CARTESIAN_POINT('',(38.099999999998,10.65,38.099987549114));
#26 = CIRCLE('',#27,38.1);
#27 = AXIS2_PLACEMENT_3D('',#28,#29,#30);
#28 = CARTESIAN_POINT('',(-6.1E-15,10.65,38.1));
#29 = DIRECTION('',(-2.2E-16,-1.,2.2E-16));
#30 = DIRECTION('',(1.,-2.2E-16,1.9E-16));
#31 = ORIENTED_EDGE('',*,*,#32,.F.);
#32 = EDGE_CURVE('',#24,#24,#33,.T.);
#33 = CIRCLE('',#34,10.65);
#34 = AXIS2_PLACEMENT_3D('',#35,#36,#37);
#35 = CARTESIAN_POINT('',(38.099999999998,0.,38.099987549114));
#36 = DIRECTION('',(3.2679489565E-07,4.4E-16,1.));
#37 = DIRECTION('',(2.2E-16,1.,-4.400000718949E-16));
#38 = ORIENTED_EDGE('',*,*,#21,.F.);
#39 = ORIENTED_EDGE('',*,*,#40,.T.);
#40 = EDGE_CURVE('',#22,#22,#41,.T.);
#41 = CIRCLE('',#42,10.65);
#42 = AXIS2_PLACEMENT_3D('',#43,#44,#45);
#43 = CARTESIAN_POINT('',(0.,0.,0.));
#44 = DIRECTION('',(1.,0.,2.2E-16));
#45 = DIRECTION('',(4.84E-32,1.,-2.2E-16));
#46 = TOROIDAL_SURFACE('',#47,38.1,10.65);
#47 = AXIS2_PLACEMENT_3D('',#48,#49,#50);
#48 = CARTESIAN_POINT('',(-8.46E-15,8.46E-15,38.1));
#49 = DIRECTION('',(-2.2E-16,-1.,2.2E-16));
#50 = DIRECTION('',(1.,-2.2E-16,1.9E-16));
#51 = ADVANCED_FACE('',(#52,#55),#66,.F.);
#52 = FACE_BOUND('',#53,.F.);
#53 = EDGE_LOOP('',(#54));
#54 = ORIENTED_EDGE('',*,*,#40,.T.);
#55 = FACE_BOUND('',#56,.F.);
#56 = EDGE_LOOP('',(#57));
#57 = ORIENTED_EDGE('',*,*,#58,.F.);
#58 = EDGE_CURVE('',#59,#59,#61,.T.);
#59 = VERTEX_POINT('',#60);
#60 = CARTESIAN_POINT('',(1.E-15,8.5463,-1.E-15));
#61 = CIRCLE('',#62,8.5463);
#62 = AXIS2_PLACEMENT_3D('',#63,#64,#65);
#63 = CARTESIAN_POINT('',(-8.35E-15,0.,0.));
#64 = DIRECTION('',(1.,-2.2E-16,0.));
#65 = DIRECTION('',(2.2E-16,1.,2.2E-16));
#66 = PLANE('',#67);
#67 = AXIS2_PLACEMENT_3D('',#68,#69,#70);
#68 = CARTESIAN_POINT('',(0.,-2.6E-16,1.23E-15));
#69 = DIRECTION('',(1.,0.,0.));
#70 = DIRECTION('',(0.,1.,0.));
#71 = ADVANCED_FACE('',(#72),#92,.F.);
#72 = FACE_BOUND('',#73,.F.);
#73 = EDGE_LOOP('',(#74,#83,#84,#85));
#74 = ORIENTED_EDGE('',*,*,#75,.F.);
#75 = EDGE_CURVE('',#59,#76,#78,.T.);
#76 = VERTEX_POINT('',#77);
#77 = CARTESIAN_POINT('',(38.099999999998,8.5463,38.099987549114));
#78 = CIRCLE('',#79,38.1);
#79 = AXIS2_PLACEMENT_3D('',#80,#81,#82);
#80 = CARTESIAN_POINT('',(-6.56E-15,8.5463,38.1));
#81 = DIRECTION('',(-2.2E-16,-1.,2.2E-16));
#82 = DIRECTION('',(1.,-2.2E-16,1.9E-16));
#83 = ORIENTED_EDGE('',*,*,#58,.T.);
#84 = ORIENTED_EDGE('',*,*,#75,.T.);
#85 = ORIENTED_EDGE('',*,*,#86,.F.);
#86 = EDGE_CURVE('',#76,#76,#87,.T.);
#87 = CIRCLE('',#88,8.5463);
#88 = AXIS2_PLACEMENT_3D('',#89,#90,#91);
#89 = CARTESIAN_POINT('',(38.099999999998,0.,38.099987549114));
#90 = DIRECTION('',(3.2679489609E-07,2.2E-16,1.));
#91 = DIRECTION('',(-2.1E-16,1.,-2.199999313731E-16));
#92 = TOROIDAL_SURFACE('',#93,38.1,8.5463);
#93 = AXIS2_PLACEMENT_3D('',#94,#95,#96);
#94 = CARTESIAN_POINT('',(-8.46E-15,8.46E-15,38.1));
#95 = DIRECTION('',(-2.2E-16,-1.,2.2E-16));
#96 = DIRECTION('',(1.,-2.2E-16,1.9E-16));
#97 = ADVANCED_FACE('',(#98,#101),#104,.T.);
#98 = FACE_BOUND('',#99,.T.);
#99 = EDGE_LOOP('',(#100));
#100 = ORIENTED_EDGE('',*,*,#32,.T.);
#101 = FACE_BOUND('',#102,.T.);
#102 = EDGE_LOOP('',(#103));
#103 = ORIENTED_EDGE('',*,*,#86,.F.);
#104 = PLANE('',#105);
#105 = AXIS2_PLACEMENT_3D('',#106,#107,#108);
#106 = CARTESIAN_POINT('',(38.099999999998,-5.1E-16,38.099987549114));
#107 = DIRECTION('',(3.267948955E-07,6.7E-16,1.));
#108 = DIRECTION('',(1.,0.,-3.267948955E-07));
#109 = ( GEOMETRIC_REPRESENTATION_CONTEXT(3) 
GLOBAL_UNCERTAINTY_ASSIGNED_CONTEXT((#113)) GLOBAL_UNIT_ASSIGNED_CONTEXT
((#110,#111,#112)) REPRESENTATION_CONTEXT('Context #1',
  '3D Context with UNIT and UNCERTAINTY') );
#110 = ( LENGTH_UNIT() NAMED_UNIT(*) SI_UNIT(.MILLI.,.METRE.) );
#111 = ( NAMED_UNIT(*) PLANE_ANGLE_UNIT() SI_UNIT($,.RADIAN.) );
#112 = ( NAMED_UNIT(*) SI_UNIT($,.STERADIAN.) SOLID_ANGLE_UNIT() );
#113 = UNCERTAINTY_MEASURE_WITH_UNIT(LENGTH_MEASURE(1.E-07),#110,
  'distance_accuracy_value','confusion accuracy');
#114 = PRODUCT_RELATED_PRODUCT_CATEGORY('part',$,(#7));
#115 = MECHANICAL_DESIGN_GEOMETRIC_PRESENTATION_REPRESENTATION('',(#116)
  ,#109);
#116 = STYLED_ITEM('color',(#117),#15);
#117 = PRESENTATION_STYLE_ASSIGNMENT((#118,#124));
#118 = SURFACE_STYLE_USAGE(.BOTH.,#119);
#119 = SURFACE_SIDE_STYLE('',(#120));
#120 = SURFACE_STYLE_FILL_AREA(#121);
#121 = FILL_AREA_STYLE('',(#122));
#122 = FILL_AREA_STYLE_COLOUR('',#123);
#123 = COLOUR_RGB('',0.800000010877,0.800000010877,0.901960800373);
#124 = CURVE_STYLE('',#125,POSITIVE_LENGTH_MEASURE(0.1),#126);
#125 = DRAUGHTING_PRE_DEFINED_CURVE_FONT('continuous');
#126 = COLOUR_RGB('',9.803921802644E-02,9.803921802644E-02,
  9.803921802644E-02);
ENDSEC;
END-ISO-10303-21;
