                                                                        S0000001
,,31HOpen CASCADE IGES processor 7.7,13HFilename.iges,                  G0000001
16HOpen CASCADE 7.7,31HOpen CASCADE IGES processor 7.7,32,308,15,308,15,G0000002
,1.,2,2HMM,1,0.01,15H20241220.174939,1E-07,51.465495,,,11,0,            G0000003
15H20241220.174939,;                                                    G0000004
     402       1       0       0       0       0       0       000000000D0000001
     402       0       0       1       1                               0D0000002
     144       2       0       0       0       0       0       000020000D0000003
     144       0       0       1       0                               0D0000004
     120       3       0       0       0       0       7       000010000D0000005
     120       0       0       1       0                               0D0000006
     124       4       0       0       0       0       0       000000000D0000007
     124       0       0       2       0                               0D0000008
     110       6       0       0       0       0       0       000010000D0000009
     110       0       0       1       0                               0D0000010
     100       7       0       0       0       0      13       000010000D0000011
     100       0       0       1       0                               0D0000012
     124       8       0       0       0       0       0       000000000D0000013
     124       0       0       1       0                               0D0000014
     142       9       0       0       0       0       0       000010500D0000015
     142       0       0       1       0                               0D0000016
     102      10       0       0       0       0       0       000010000D0000017
     102       0       0       1       0                               0D0000018
     100      11       0       0       0       0      21       000010000D0000019
     100       0       0       1       0                               0D0000020
     124      12       0       0       0       0       0       000000000D0000021
     124       0       0       2       0                               0D0000022
     100      14       0       0       0       0      25       000010000D0000023
     100       0       0       1       0                               0D0000024
     124      15       0       0       0       0       0       000000000D0000025
     124       0       0       2       0                               0D0000026
     100      17       0       0       0       0      29       000010000D0000027
     100       0       0       1       0                               0D0000028
     124      18       0       0       0       0       0       000000000D0000029
     124       0       0       2       0                               0D0000030
     100      20       0       0       0       0      33       000010000D0000031
     100       0       0       1       0                               0D0000032
     124      21       0       0       0       0       0       000000000D0000033
     124       0       0       2       0                               0D0000034
     144      23       0       0       0       0       0       000020000D0000035
     144       0       0       1       0                               0D0000036
     108      24       0       0       0       0       0       000010000D0000037
     108       0       0       1       0                               0D0000038
     142      25       0       0       0       0       0       000010500D0000039
     142       0       0       1       0                               0D0000040
     100      26       0       0       0       0      43       000010000D0000041
     100       0       0       1       0                               0D0000042
     124      27       0       0       0       0       0       000000000D0000043
     124       0       0       2       0                               0D0000044
     142      29       0       0       0       0       0       000010500D0000045
     142       0       0       1       0                               0D0000046
     100      30       0       0       0       0      49       000010000D0000047
     100       0       0       1       0                               0D0000048
     124      31       0       0       0       0       0       000000000D0000049
     124       0       0       2       0                               0D0000050
     144      33       0       0       0       0       0       000020000D0000051
     144       0       0       1       0                               0D0000052
     120      34       0       0       0       0      55       000010000D0000053
     120       0       0       1       0                               0D0000054
     124      35       0       0       0       0       0       000000000D0000055
     124       0       0       2       1                               0D0000056
     110      37       0       0       0       0       0       000010000D0000057
     110       0       0       1       0                               0D0000058
     100      38       0       0       0       0      61       000010000D0000059
     100       0       0       1       0                               0D0000060
     124      39       0       0       0       0       0       000000000D0000061
     124       0       0       1       0                               0D0000062
     142      40       0       0       0       0       0       000010500D0000063
     142       0       0       1       0                               0D0000064
     102      41       0       0       0       0       0       000010000D0000065
     102       0       0       1       0                               0D0000066
     100      42       0       0       0       0      69       000010000D0000067
     100       0       0       1       0                               0D0000068
     124      43       0       0       0       0       0       000000000D0000069
     124       0       0       2       0                               0D0000070
     100      45       0       0       0       0      73       000010000D0000071
     100       0       0       1       0                               0D0000072
     124      46       0       0       0       0       0       000000000D0000073
     124       0       0       2       0                               0D0000074
     100      48       0       0       0       0      77       000010000D0000075
     100       0       0       1       0                               0D0000076
     124      49       0       0       0       0       0       000000000D0000077
     124       0       0       2       0                               0D0000078
     100      51       0       0       0       0      81       000010000D0000079
     100       0       0       1       0                               0D0000080
     124      52       0       0       0       0       0       000000000D0000081
     124       0       0       2       0                               0D0000082
     144      54       0       0       0       0       0       000020000D0000083
     144       0       0       1       0                               0D0000084
     108      55       0       0       0       0       0       000010000D0000085
     108       0       0       2       0                               0D0000086
     142      57       0       0       0       0       0       000010500D0000087
     142       0       0       1       0                               0D0000088
     100      58       0       0       0       0      91       000010000D0000089
     100       0       0       1       0                               0D0000090
     124      59       0       0       0       0       0       000000000D0000091
     124       0       0       2       0                               0D0000092
     142      61       0       0       0       0       0       000010500D0000093
     142       0       0       1       0                               0D0000094
     100      62       0       0       0       0      97       000010000D0000095
     100       0       0       1       0                               0D0000096
     124      63       0       0       0       0       0       000000000D0000097
     124       0       0       2       0                               0D0000098
402,4,3,35,51,83;                                                0000001P0000001
144,5,1,0,15;                                                    0000003P0000002
120,9,11,3.26794896E-07,1.570796327;                             0000005P0000003
124,1.,-1.9E-16,-2.2E-16,-8.46E-15,-2.2E-16,2.2E-16,-1.,         0000007P0000004
8.46E-15,1.9E-16,1.,2.2E-16,38.1;                                0000007P0000005
110,0.,0.,1.,0.,0.,0.;                                           0000009P0000006
100,0.,0.,0.,0.,-13.35,0.,-13.35;                                0000011P0000007
124,1.,0.,0.,38.1,0.,0.,-1.,0.,0.,1.,-0.,0.;                     0000013P0000008
142,0,5,0,17,2;                                                  0000015P0000009
102,4,19,23,27,31;                                               0000017P0000010
100,0.,0.,0.,-6.998856457E-15,-38.1,38.1,-1.245088555E-05;       0000019P0000011
124,1.,-1.9E-16,-2.2E-16,-5.5E-15,-2.2E-16,2.2E-16,-1.,13.35,    0000021P0000012
1.9E-16,1.,2.2E-16,38.1;                                         0000021P0000013
100,0.,0.,0.,13.35,0.,13.35,0.;                                  0000023P0000014
124,2.2E-16,1.,-3.267948957E-07,38.1,1.,-2.200001438E-16,        0000025P0000015
-4.4E-16,0.,-4.400000719E-16,-3.267948957E-07,-1.,38.099987549;  0000025P0000016
100,0.,0.,0.,38.1,1.245088554E-05,2.332952152E-15,38.1;          0000027P0000017
124,1.,1.9E-16,2.2E-16,-5.5E-15,-2.2E-16,-2.2E-16,1.,13.35,      0000029P0000018
1.9E-16,-1.,-2.2E-16,38.1;                                       0000029P0000019
100,0.,0.,0.,13.35,0.,13.35,0.;                                  0000031P0000020
124,4.84E-32,-2.2E-16,1.,0.,1.,2.2E-16,0.,0.,-2.2E-16,1.,        0000033P0000021
2.2E-16,0.;                                                      0000033P0000022
144,37,1,1,39,45;                                                0000035P0000023
108,-1.,-0.,-0.,0.,0,0.,-4.1E-16,2.24E-15,0.;                    0000037P0000024
142,0,37,0,41,2;                                                 0000039P0000025
100,0.,0.,0.,13.35,0.,13.35,0.;                                  0000041P0000026
124,4.84E-32,2.2E-16,-1.,0.,1.,-2.2E-16,0.,0.,-2.2E-16,-1.,      0000043P0000027
-2.2E-16,0.;                                                     0000043P0000028
142,0,37,0,47,2;                                                 0000045P0000029
100,0.,0.,0.,10.48,-6.46E-32,10.48,-6.46E-32;                    0000047P0000030
124,2.2E-16,-1.E-17,1.,-8.22E-15,1.,-2.2E-16,-2.2E-16,8.E-17,    0000049P0000031
2.2E-16,1.,1.E-17,0.;                                            0000049P0000032
144,53,1,0,63;                                                   0000051P0000033
120,57,59,4.71238898,6.28318498;                                 0000053P0000034
124,1.,1.9E-16,-2.2E-16,-8.46E-15,-2.2E-16,-2.2E-16,-1.,         0000055P0000035
8.46E-15,1.9E-16,-1.,2.2E-16,38.1;                               0000055P0000036
110,0.,0.,1.,0.,0.,0.;                                           0000057P0000037
100,0.,0.,0.,0.,-10.48,0.,-10.48;                                0000059P0000038
124,1.,0.,0.,38.1,0.,0.,-1.,0.,0.,1.,-0.,0.;                     0000061P0000039
142,0,53,0,65,2;                                                 0000063P0000040
102,4,67,71,75,79;                                               0000065P0000041
100,0.,0.,0.,10.48,0.,10.48,0.;                                  0000067P0000042
124,-2.2E-16,-1.,3.267948961E-07,38.1,1.,-2.199999281E-16,       0000069P0000043
2.2E-16,0.,-2.199999281E-16,3.267948961E-07,1.,38.099987549;     0000069P0000044
100,0.,0.,0.,38.1,1.245088554E-05,2.332952152E-15,38.1;          0000071P0000045
124,1.,1.9E-16,2.2E-16,-6.15E-15,-2.2E-16,-2.2E-16,1.,10.48,     0000073P0000046
1.9E-16,-1.,-2.2E-16,38.1;                                       0000073P0000047
100,0.,0.,0.,10.48,6.46E-32,10.48,6.46E-32;                      0000075P0000048
124,2.2E-16,1.E-17,-1.,-8.22E-15,1.,2.2E-16,2.2E-16,8.E-17,      0000077P0000049
2.2E-16,-1.,-1.E-17,0.;                                          0000077P0000050
100,0.,0.,0.,-6.998856457E-15,-38.1,38.1,-1.245088555E-05;       0000079P0000051
124,1.,-1.9E-16,-2.2E-16,-6.15E-15,-2.2E-16,2.2E-16,-1.,10.48,   0000081P0000052
1.9E-16,1.,2.2E-16,38.1;                                         0000081P0000053
144,85,1,1,87,93;                                                0000083P0000054
108,3.267948957E-07,5.3E-16,1.,38.1,0,38.1,-1.23E-15,            0000085P0000055
38.099987549,0.;                                                 0000085P0000056
142,0,85,0,89,2;                                                 0000087P0000057
100,0.,0.,0.,13.35,0.,13.35,0.;                                  0000089P0000058
124,2.2E-16,-1.,3.267948957E-07,38.1,1.,2.200001438E-16,4.4E-16, 0000091P0000059
0.,-4.400000719E-16,3.267948957E-07,1.,38.099987549;             0000091P0000060
142,0,85,0,95,2;                                                 0000093P0000061
100,0.,0.,0.,10.48,0.,10.48,0.;                                  0000095P0000062
124,-2.2E-16,1.,-3.267948961E-07,38.1,1.,2.199999281E-16,        0000097P0000063
-2.2E-16,0.,-2.199999281E-16,-3.267948961E-07,-1.,38.099987549;  0000097P0000064
S      1G      4D     98P     64                                        T0000001
