                                                                        S0000001
,,31HOpen CASCADE IGES processor 7.7,13HFilename.iges,                  G0000001
16HOpen CASCADE 7.7,31HOpen CASCADE IGES processor 7.7,32,308,15,308,15,G0000002
,1.,2,2HMM,1,0.01,15H20241220.174939,1E-07,711.302398,,,11,0,           G0000003
15H20241220.174939,;                                                    G0000004
     402       1       0       0       0       0       0       000000000D0000001
     402       0       0       1       1                               0D0000002
     144       2       0       0       0       0       0       000020000D0000003
     144       0       0       1       0                               0D0000004
     120       3       0       0       0       0       7       000010000D0000005
     120       0       0       1       0                               0D0000006
     124       4       0       0       0       0       0       000000000D0000007
     124       0       0       2       0                               0D0000008
     110       6       0       0       0       0       0       000010000D0000009
     110       0       0       1       0                               0D0000010
     100       7       0       0       0       0      13       000010000D0000011
     100       0       0       1       0                               0D0000012
     124       8       0       0       0       0       0       000000000D0000013
     124       0       0       1       0                               0D0000014
     142       9       0       0       0       0       0       000010500D0000015
     142       0       0       1       0                               0D0000016
     102      10       0       0       0       0       0       000010000D0000017
     102       0       0       1       0                               0D0000018
     110      11       0       0       0       0       0       000010000D0000019
     110       0       0       1       0                               0D0000020
     110      12       0       0       0       0       0       000010000D0000021
     110       0       0       2       0                               0D0000022
     110      14       0       0       0       0       0       000010000D0000023
     110       0       0       1       0                               0D0000024
     110      15       0       0       0       0       0       000010000D0000025
     110       0       0       1       0                               0D0000026
     102      16       0       0       0       0       0       000010000D0000027
     102       0       0       1       0                               0D0000028
     100      17       0       0       0       0      31       000010000D0000029
     100       0       0       1       0                               0D0000030
     124      18       0       0       0       0       0       000000000D0000031
     124       0       0       2       0                               0D0000032
     100      20       0       0       0       0      35       000010000D0000033
     100       0       0       1       0                               0D0000034
     124      21       0       0       0       0       0       000000000D0000035
     124       0       0       2       0                               0D0000036
     100      23       0       0       0       0      39       000010000D0000037
     100       0       0       1       0                               0D0000038
     124      24       0       0       0       0       0       000000000D0000039
     124       0       0       2       0                               0D0000040
     100      26       0       0       0       0      43       000010000D0000041
     100       0       0       1       0                               0D0000042
     124      27       0       0       0       0       0       000000000D0000043
     124       0       0       2       0                               0D0000044
     144      29       0       0       0       0       0       000020000D0000045
     144       0       0       1       0                               0D0000046
     108      30       0       0       0       0       0       000010000D0000047
     108       0       0       1       0                               0D0000048
     142      31       0       0       0       0       0       000010500D0000049
     142       0       0       1       0                               0D0000050
     100      32       0       0       0       0      53       000010000D0000051
     100       0       0       1       0                               0D0000052
     124      33       0       0       0       0       0       000000000D0000053
     124       0       0       2       0                               0D0000054
     142      35       0       0       0       0       0       000010500D0000055
     142       0       0       1       0                               0D0000056
     100      36       0       0       0       0      59       000010000D0000057
     100       0       0       1       0                               0D0000058
     124      37       0       0       0       0       0       000000000D0000059
     124       0       0       2       0                               0D0000060
     144      39       0       0       0       0       0       000020000D0000061
     144       0       0       1       0                               0D0000062
     120      40       0       0       0       0      65       000010000D0000063
     120       0       0       1       0                               0D0000064
     124      41       0       0       0       0       0       000000000D0000065
     124       0       0       2       1                               0D0000066
     110      43       0       0       0       0       0       000010000D0000067
     110       0       0       1       0                               0D0000068
     100      44       0       0       0       0      71       000010000D0000069
     100       0       0       1       0                               0D0000070
     124      45       0       0       0       0       0       000000000D0000071
     124       0       0       1       0                               0D0000072
     142      46       0       0       0       0       0       000010500D0000073
     142       0       0       1       0                               0D0000074
     102      47       0       0       0       0       0       000010000D0000075
     102       0       0       1       0                               0D0000076
     110      48       0       0       0       0       0       000010000D0000077
     110       0       0       1       0                               0D0000078
     110      49       0       0       0       0       0       000010000D0000079
     110       0       0       1       0                               0D0000080
     110      50       0       0       0       0       0       000010000D0000081
     110       0       0       1       0                               0D0000082
     110      51       0       0       0       0       0       000010000D0000083
     110       0       0       1       0                               0D0000084
     102      52       0       0       0       0       0       000010000D0000085
     102       0       0       1       0                               0D0000086
     100      53       0       0       0       0      89       000010000D0000087
     100       0       0       1       0                               0D0000088
     124      54       0       0       0       0       0       000000000D0000089
     124       0       0       2       0                               0D0000090
     100      56       0       0       0       0      93       000010000D0000091
     100       0       0       1       0                               0D0000092
     124      57       0       0       0       0       0       000000000D0000093
     124       0       0       2       0                               0D0000094
     100      59       0       0       0       0      97       000010000D0000095
     100       0       0       1       0                               0D0000096
     124      60       0       0       0       0       0       000000000D0000097
     124       0       0       2       0                               0D0000098
     100      62       0       0       0       0     101       000010000D0000099
     100       0       0       1       0                               0D0000100
     124      63       0       0       0       0       0       000000000D0000101
     124       0       0       2       0                               0D0000102
     144      65       0       0       0       0       0       000020000D0000103
     144       0       0       1       0                               0D0000104
     108      66       0       0       0       0       0       000010000D0000105
     108       0       0       2       0                               0D0000106
     142      68       0       0       0       0       0       000010500D0000107
     142       0       0       1       0                               0D0000108
     100      69       0       0       0       0     111       000010000D0000109
     100       0       0       1       0                               0D0000110
     124      70       0       0       0       0       0       000000000D0000111
     124       0       0       2       0                               0D0000112
     142      72       0       0       0       0       0       000010500D0000113
     142       0       0       1       0                               0D0000114
     100      73       0       0       0       0     117       000010000D0000115
     100       0       0       1       0                               0D0000116
     124      74       0       0       0       0       0       000000000D0000117
     124       0       0       2       0                               0D0000118
402,4,3,45,61,103;                                               0000001P0000001
144,5,1,0,15;                                                    0000003P0000002
120,9,11,3.26794896E-07,1.570796327;                             0000005P0000003
124,1.,-2.1E-16,-2.2E-16,-1.1844E-13,-2.2E-16,2.2E-16,-1.,       0000007P0000004
1.1844E-13,2.1E-16,1.,2.2E-16,533.4;                             0000007P0000005
110,0.,0.,1.,0.,0.,0.;                                           0000009P0000006
100,0.,0.,0.,0.,-177.8,0.,-177.8;                                0000011P0000007
124,1.,0.,0.,533.4,0.,0.,-1.,0.,0.,1.,-0.,0.;                    0000013P0000008
142,0,5,17,27,3;                                                 0000015P0000009
102,4,19,21,23,25;                                               0000017P0000010
110,4.71238898,1.570796327,0.,4.71238898,3.267948969E-07,0.;     0000019P0000011
110,4.71238898,3.267948989E-07,0.,10.995574288,3.267949003E-07,  0000021P0000012
0.;                                                              0000021P0000013
110,10.995574288,3.267948987E-07,0.,10.995574288,1.570796327,0.; 0000023P0000014
110,10.995574288,1.570796327,0.,4.71238898,1.570796327,0.;       0000025P0000015
102,4,29,33,37,41;                                               0000027P0000016
100,0.,0.,0.,-9.79839904E-14,-533.4,533.4,-1.743123977E-04;      0000029P0000017
124,1.,-2.1E-16,-2.2E-16,-7.896E-14,-2.2E-16,2.2E-16,-1.,177.8,  0000031P0000018
2.1E-16,1.,2.2E-16,533.4;                                        0000031P0000019
100,0.,0.,0.,0.,-177.8,0.,-177.8;                                0000033P0000020
124,1.,-2.199999281E-16,-3.267948961E-07,533.4,-2.2E-16,-1.,     0000035P0000021
-2.2E-16,0.,-3.267948961E-07,2.200000719E-16,-1.,533.399825688;  0000035P0000022
100,0.,0.,0.,533.4,1.743123976E-04,3.266133013E-14,533.4;        0000037P0000023
124,1.,2.1E-16,2.2E-16,-7.896E-14,-2.2E-16,-2.2E-16,1.,177.8,    0000039P0000024
2.1E-16,-1.,-2.2E-16,533.4;                                      0000039P0000025
100,0.,0.,0.,177.8,0.,177.8,0.;                                  0000041P0000026
124,4.84E-32,-2.2E-16,1.,0.,1.,2.2E-16,0.,0.,-2.2E-16,1.,        0000043P0000027
2.2E-16,0.;                                                      0000043P0000028
144,47,1,1,49,55;                                                0000045P0000029
108,-1.,-0.,-0.,0.,0,0.,-3.94E-15,1.766E-14,0.;                  0000047P0000030
142,0,47,0,51,2;                                                 0000049P0000031
100,0.,0.,0.,177.8,0.,177.8,0.;                                  0000051P0000032
124,4.84E-32,2.2E-16,-1.,0.,1.,-2.2E-16,0.,0.,-2.2E-16,-1.,      0000053P0000033
-2.2E-16,0.;                                                     0000053P0000034
142,0,47,0,57,2;                                                 0000055P0000035
100,0.,0.,0.,166.67,-3.0822E-30,166.67,-3.0822E-30;              0000057P0000036
124,2.2E-16,-3.E-17,1.,-1.0274E-13,1.,-2.2E-16,-2.2E-16,0.,      0000059P0000037
2.2E-16,1.,3.E-17,0.;                                            0000059P0000038
144,63,1,0,73;                                                   0000061P0000039
120,67,69,4.71238898,6.28318498;                                 0000063P0000040
124,1.,2.1E-16,-2.2E-16,-1.1844E-13,-2.2E-16,-2.2E-16,-1.,       0000065P0000041
1.1844E-13,2.1E-16,-1.,2.2E-16,533.4;                            0000065P0000042
110,0.,0.,1.,0.,0.,0.;                                           0000067P0000043
100,0.,0.,0.,0.,-166.67,0.,-166.67;                              0000069P0000044
124,1.,0.,0.,533.4,0.,0.,-1.,0.,0.,1.,-0.,0.;                    0000071P0000045
142,0,63,75,85,3;                                                0000073P0000046
102,4,77,79,81,83;                                               0000075P0000047
110,10.995574288,6.28318498,0.,4.71238898,6.28318498,0.;         0000077P0000048
110,4.71238898,6.28318498,0.,4.71238898,4.71238898,0.;           0000079P0000049
110,4.71238898,4.71238898,0.,10.995574288,4.71238898,0.;         0000081P0000050
110,10.995574288,4.71238898,0.,10.995574288,6.28318498,0.;       0000083P0000051
102,4,87,91,95,99;                                               0000085P0000052
100,0.,0.,0.,0.,166.67,0.,166.67;                                0000087P0000053
124,1.,2.199999281E-16,3.267948961E-07,533.4,-2.2E-16,1.,        0000089P0000054
2.2E-16,0.,-3.267948961E-07,-2.200000719E-16,1.,533.399825688;   0000089P0000055
100,0.,0.,0.,533.4,1.743123976E-04,3.266133013E-14,533.4;        0000091P0000056
124,1.,2.1E-16,2.2E-16,-8.143E-14,-2.2E-16,-2.2E-16,1.,166.67,   0000093P0000057
2.1E-16,-1.,-2.2E-16,533.4;                                      0000093P0000058
100,0.,0.,0.,166.67,3.0822E-30,166.67,3.0822E-30;                0000095P0000059
124,2.2E-16,3.E-17,-1.,-1.0274E-13,1.,2.2E-16,2.2E-16,0.,        0000097P0000060
2.2E-16,-1.,-3.E-17,0.;                                          0000097P0000061
100,0.,0.,0.,-9.79839904E-14,-533.4,533.4,-1.743123977E-04;      0000099P0000062
124,1.,-2.1E-16,-2.2E-16,-8.143E-14,-2.2E-16,2.2E-16,-1.,166.67, 0000101P0000063
2.1E-16,1.,2.2E-16,533.4;                                        0000101P0000064
144,105,1,1,107,113;                                             0000103P0000065
108,3.267948955E-07,4.3E-16,1.,533.4,0,533.4,-1.181E-14,         0000105P0000066
533.399825688,0.;                                                0000105P0000067
142,0,105,0,109,2;                                               0000107P0000068
100,0.,0.,0.,0.,177.8,0.,177.8;                                  0000109P0000069
124,1.,2.199999281E-16,3.267948961E-07,533.4,-2.2E-16,1.,        0000111P0000070
2.2E-16,0.,-3.267948961E-07,-2.200000719E-16,1.,533.399825688;   0000111P0000071
142,0,105,0,115,2;                                               0000113P0000072
100,0.,0.,0.,0.,-166.67,0.,-166.67;                              0000115P0000073
124,1.,-2.199999281E-16,-3.267948961E-07,533.4,-2.2E-16,-1.,     0000117P0000074
-2.2E-16,0.,-3.267948961E-07,2.200000719E-16,-1.,533.399825688;  0000117P0000075
S      1G      4D    118P     75                                        T0000001
